<?xml version="1.0" encoding="utf-8"?>
<!-- Generator: Adobe Illustrator 25.1.0, SVG Export Plug-In . SVG Version: 6.00 Build 0)  -->
<svg version="1.1" id="Layer_1" xmlns="http://www.w3.org/2000/svg" xmlns:xlink="http://www.w3.org/1999/xlink" x="0px" y="0px"
	 viewBox="0 0 512 512" style="enable-background:new 0 0 512 512;" xml:space="preserve">
<style type="text/css">
	.st0{fill:#A0EEF8;}
	.st1{fill:#D8A782;}
	.st2{fill:#9A9289;}
	.st3{fill:#EEBD92;}
	.st4{fill:#4B3749;}
	.st5{fill:#342833;}
</style>
<g>
	<g>
		<g>
			<path class="st0" d="M512,256c0,56.5-18.3,108.7-49.3,151.1c-46.6,63.6-121.8,39.5-206.7,39.5S95.9,470.7,49.3,407.1
				C18.3,364.7,0,312.5,0,256C0,114.6,114.6,0,256,0S512,114.6,512,256z"/>
		</g>
	</g>
	<g>
		<path class="st1" d="M200,260.5H312v125.8H200V260.5z"/>
		<path class="st1" d="M256,332.3h121.4v114.3H256V332.3z"/>
		<path class="st2" d="M462.7,407.1C416.1,470.7,340.9,512,256,512S95.9,470.7,49.3,407.1c1.3-41.5,35.3-74.8,77.2-74.8H200
			c0,0,0,53.7,56,53.7s56-53.7,56-53.7h73.5C427.4,332.3,461.4,365.5,462.7,407.1z"/>
		<path class="st3" d="M349.6,151.1c-4-60-52.5-82.2-93.6-82.2s-89.7,22.2-93.6,82.2c-10.6,2.1-18.2,16-17,27.3l1.8,25.6
			c1.2,11.8,11.6,20.5,23.1,19.2l2-0.2c23.5,63.1,60.3,69.6,83.7,73.3c23.4-3.7,60.2-10.3,83.7-73.3l2,0.2
			c11.5,1.3,21.9-7.4,23.1-19.2l1.8-25.6C367.8,167.1,360.2,153.2,349.6,151.1L349.6,151.1z"/>
		<path class="st3" d="M366.6,178.4l-1.8,25.6c-1.2,11.8-11.6,20.5-23.1,19.2l-2-0.2c-8,21.5-17.6,36.5-27.7,47
			c-19.4,20.2-40.6,23.9-56,26.4V68.9c41.1,0,89.7,22.2,93.6,82.2C360.2,153.2,367.8,167.1,366.6,178.4L366.6,178.4z"/>
		<path class="st4" d="M199.2,29.5c0,0-54.1,52.8-42.9,104.9l7.8,51.9h21.5l10.3-38.3c3.7-13.6,17.7-21.9,31.3-18.1
			c1.3,0.4,2.6,0.8,3.9,1.2l3.8,1.3c13.8,4.9,28.8,4.4,42.4-0.9c2.7-1.1,5.5-1.9,8.4-2.6c13.4-3.1,26.8,5.1,30.3,18.3l10.5,38.9
			h21.5l7.8-54C357.3,85.9,320.1,29.5,199.2,29.5z"/>
		<path class="st5" d="M355.7,132.2l-7.8,54h-21.5l-10.5-38.9c-3.6-13.2-17-21.4-30.3-18.3c-2.8,0.6-5.6,1.5-8.4,2.6
			c-6.8,2.7-14,4.1-21.2,4.3V34.5C332.1,49.2,357,94.2,355.7,132.2L355.7,132.2z"/>
	</g>
</g>
</svg>
