<?xml version="1.0" encoding="utf-8"?>
<!-- Generator: Adobe Illustrator 25.1.0, SVG Export Plug-In . SVG Version: 6.00 Build 0)  -->
<svg version="1.1" id="Layer_1" xmlns="http://www.w3.org/2000/svg" xmlns:xlink="http://www.w3.org/1999/xlink" x="0px" y="0px"
	 viewBox="0 0 512 512" style="enable-background:new 0 0 512 512;" xml:space="preserve">
<style type="text/css">
	.st0{fill:#F5F5F5;}
	.st1{fill:#CFD8DC;}
	.st2{fill:#607D8B;}
	.st3{fill:#37474F;}
	.st4{fill:#009688;}
	.st5{fill:#00695C;}
	.st6{fill:#9E9E9E;}
	.st7{fill:#D28FF4;}
	.st8{fill:#AB7DBC;}
	.st9{fill:#E3C0F9;}
	.st10{fill:#545C60;}
</style>
<g id="Page-1">
	<g id="_x30_51---Upload-Photographs">
		<path id="Shape" class="st0" d="M503.5,76.8v290.1c0,9.4-7.7,17-17.1,17.1h-59.7V281.6c0-18.9-15.3-34.1-34.1-34.1h-58.5
			c-7,0-13.2-4.3-15.8-10.8l-15.4-38.2c-2.6-6.5-8.8-10.7-15.8-10.8h-62.3c-7,0-13.2,4.3-15.8,10.8l-15.4,38.2
			c-2.6,6.5-8.8,10.7-15.8,10.8h-58.5c-18.9,0-34.1,15.3-34.1,34.1V384H25.6c-9.4,0-17-7.7-17.1-17.1V76.8H503.5z"/>
		<path id="Shape_1_" class="st1" d="M477.9,76.8v290.1c0,9.4-7.7,17-17.1,17.1h25.6c9.4,0,17-7.7,17.1-17.1V76.8H477.9z"/>
		<path id="Shape_2_" class="st1" d="M59.7,281.6V384h25.6V281.6c0-18.9,15.3-34.1,34.1-34.1H93.9C75,247.5,59.7,262.7,59.7,281.6z"
			/>
		<path id="Shape_3_" class="st1" d="M183.5,198.5l-15.4,38.2c-2.6,6.5-8.8,10.7-15.8,10.8h25.6c7,0,13.2-4.3,15.8-10.8l15.4-38.2
			c2.6-6.5,8.8-10.7,15.8-10.8h-25.6C192.3,187.8,186,192,183.5,198.5z"/>
		<path id="Shape_4_" class="st2" d="M503.5,25.6v51.2H8.5V25.6c0-9.4,7.7-17,17.1-17.1h460.8C495.8,8.6,503.4,16.2,503.5,25.6z"/>
		<path id="Shape_5_" class="st3" d="M486.4,8.5h-25.6c9.4,0,17,7.7,17.1,17.1v51.2h25.6V25.6C503.4,16.2,495.8,8.6,486.4,8.5z"/>
		<path id="Shape_6_" class="st4" d="M426.7,281.6v187.7c0,18.9-15.3,34.1-34.1,34.1H119.5c-18.9,0-34.1-15.3-34.1-34.1V281.6
			c0-18.9,15.3-34.1,34.1-34.1h58.5c7,0,13.2-4.3,15.8-10.8l15.4-38.2c2.6-6.5,8.8-10.7,15.8-10.8h62.3c7,0,13.2,4.3,15.8,10.8
			l15.4,38.2c2.6,6.5,8.8,10.7,15.8,10.8h58.5C411.4,247.5,426.7,262.7,426.7,281.6L426.7,281.6z"/>
		<path id="Shape_7_" class="st5" d="M392.5,247.5h-25.6c18.9,0,34.1,15.3,34.1,34.1v187.7c0,18.9-15.3,34.1-34.1,34.1h25.6
			c18.9,0,34.1-15.3,34.1-34.1V281.6C426.7,262.7,411.4,247.5,392.5,247.5z"/>
		<path id="Shape_8_" class="st5" d="M277.3,198.5l15.4,38.2c2.6,6.5,8.8,10.7,15.8,10.8h25.6c-7,0-13.2-4.3-15.8-10.8l-15.4-38.2
			c-2.6-6.5-8.8-10.7-15.8-10.8h-25.6C268.5,187.8,274.8,192,277.3,198.5z"/>
		<path id="Shape_9_" class="st5" d="M136.5,213.3h17.1c9.4,0,17.1,7.6,17.1,17.1v17.1h-51.2v-17.1
			C119.5,221,127.1,213.3,136.5,213.3z"/>
		<path id="Shape_10_" class="st6" d="M341.3,375.5c0,14.6-3.8,29-10.9,41.8c-5.7,10-13.3,18.8-22.4,25.8
			c-31.4,24.2-75.4,23.5-106.1-1.6c-30.7-25.1-40-68.1-22.5-103.7s57.3-54.4,95.9-45.4C314,301.3,341.3,335.8,341.3,375.5
			L341.3,375.5z"/>
		<circle id="Oval" class="st7" cx="256" cy="375.5" r="51.2"/>
		<path id="Shape_11_" class="st8" d="M256,324.3c-4.3,0-8.6,0.6-12.8,1.7c22.6,5.8,38.4,26.2,38.4,49.5s-15.8,43.7-38.4,49.5
			c19.2,5,39.6-1.6,52.3-16.8c12.7-15.3,15.4-36.5,6.9-54.5C294,335.7,275.9,324.2,256,324.3L256,324.3z"/>
		<circle id="Oval_1_" class="st9" cx="375.5" cy="298.7" r="17.1"/>
		<path id="Shape_12_" class="st10" d="M344.8,455.8c-3.2,3.2-7.5,5-12,5s-8.9-1.8-12-5l-12.7-12.7c9.1-7,16.7-15.8,22.4-25.8
			l14.4,14.4c3.2,3.2,5.1,7.5,5.1,12C349.9,448.3,348.1,452.6,344.8,455.8L344.8,455.8z"/>
		<circle id="Oval_2_" cx="42.7" cy="42.7" r="8.5"/>
		<circle id="Oval_3_" cx="76.8" cy="42.7" r="8.5"/>
		<circle id="Oval_4_" cx="110.9" cy="42.7" r="8.5"/>
		<path id="Shape_13_" class="st0" d="M238.9,384c-4.7,0-8.5-3.8-8.5-8.5c0-14.1,11.5-25.6,25.6-25.6c4.7,0,8.5,3.8,8.5,8.5
			s-3.8,8.5-8.5,8.5c-4.7,0-8.5,3.8-8.5,8.5C247.5,380.2,243.6,384,238.9,384z"/>
		<g>
			<path id="Shape_14_" d="M486.4,0H25.6C11.5,0,0,11.5,0,25.6v341.3c0,14.1,11.5,25.6,25.6,25.6h51.2v76.8
				c0,23.6,19.1,42.6,42.7,42.7h273.1c23.6,0,42.6-19.1,42.7-42.7v-76.8h51.2c14.1,0,25.6-11.5,25.6-25.6V25.6
				C512,11.5,500.5,0,486.4,0z M25.6,17.1h460.8c4.7,0,8.5,3.8,8.5,8.5v42.7H17.1V25.6C17.1,20.9,20.9,17.1,25.6,17.1z M418.1,469.3
				c0,14.1-11.5,25.6-25.6,25.6h-256v-128c0-4.7-3.8-8.5-8.5-8.5c-4.7,0-8.5,3.8-8.5,8.5v128c-14.1,0-25.6-11.5-25.6-25.6V281.6
				c0-14.1,11.5-25.6,25.6-25.6h58.4c10.5,0,19.9-6.3,23.8-16.1l15.4-38.3c1.3-3.2,4.4-5.3,7.8-5.4h62.3c3.5,0,6.6,2.2,7.9,5.4
				l15.4,38.3c3.9,9.7,13.3,16.1,23.7,16.1h58.4c14.1,0,25.6,11.5,25.6,25.6V469.3z M162.1,238.9H128v-8.5c0-4.7,3.8-8.5,8.5-8.5
				h17.1c4.7,0,8.5,3.8,8.5,8.5V238.9z M486.4,375.5h-51.2v-93.9c0-23.6-19.1-42.6-42.7-42.7h-58.4c-3.5,0-6.6-2.1-7.9-5.4
				l-15.4-38.2c-3.9-9.7-13.2-16.1-23.7-16.2h-62.3c-10.4,0.1-19.8,6.4-23.7,16.1l-15.4,38.3c-1.1,2.8-3.6,4.7-6.6,5.2v-8.3
				c0-14.1-11.5-25.6-25.6-25.6h-17c-14.1,0-25.6,11.5-25.6,25.6v9.4c-19.9,4.1-34.1,21.5-34.1,41.8v93.9H25.6
				c-4.7,0-8.5-3.8-8.5-8.5V85.3h477.9v281.6C494.9,371.6,491.1,375.5,486.4,375.5L486.4,375.5z"/>
			<path id="Shape_15_" d="M230.4,51.2h51.2c4.7,0,8.5-3.8,8.5-8.5s-3.8-8.5-8.5-8.5h-51.2c-4.7,0-8.5,3.8-8.5,8.5
				S225.7,51.2,230.4,51.2z"/>
			<path id="Shape_16_" d="M375.5,51.2h93.9c4.7,0,8.5-3.8,8.5-8.5s-3.8-8.5-8.5-8.5h-93.9c-4.7,0-8.5,3.8-8.5,8.5
				S370.8,51.2,375.5,51.2z"/>
			<path id="Shape_17_" d="M238.9,238.9h34.1c4.7,0,8.5-3.8,8.5-8.5s-3.8-8.5-8.5-8.5h-34.1c-4.7,0-8.5,3.8-8.5,8.5
				S234.2,238.9,238.9,238.9z"/>
			<path id="Shape_18_" d="M128,307.2c-4.7,0-8.5,3.8-8.5,8.5v17.1c0,4.7,3.8,8.5,8.5,8.5c4.7,0,8.5-3.8,8.5-8.5v-17.1
				C136.5,311,132.7,307.2,128,307.2z"/>
			<path id="Shape_19_" d="M256,315.7c-33,0-59.7,26.7-59.7,59.7s26.7,59.7,59.7,59.7s59.7-26.7,59.7-59.7
				C315.7,342.5,289,315.8,256,315.7z M256,418.1c-23.6,0-42.7-19.1-42.7-42.7c0-23.6,19.1-42.7,42.7-42.7s42.7,19.1,42.7,42.7
				C298.6,399,279.6,418.1,256,418.1z"/>
			<path id="Shape_20_" d="M375.5,273.1c-14.1,0-25.6,11.5-25.6,25.6c0,14.1,11.5,25.6,25.6,25.6c14.1,0,25.6-11.5,25.6-25.6
				C401.1,284.5,389.6,273.1,375.5,273.1z M375.5,307.2c-4.7,0-8.5-3.8-8.5-8.5s3.8-8.5,8.5-8.5c4.7,0,8.5,3.8,8.5,8.5
				S380.2,307.2,375.5,307.2z"/>
			<path id="Shape_21_" d="M340.8,415.6c20.1-42.4,5.8-93.1-33.4-118.8s-91.4-18.6-122.3,16.8s-31,88-0.2,123.4
				s82.9,42.8,122.2,17.2l7.7,7.7c6.5,6.5,15.9,9,24.7,6.6c8.8-2.4,15.7-9.3,18.1-18.1c2.4-8.8-0.2-18.2-6.6-24.7L340.8,415.6z
				 M179.2,375.5c0-42.4,34.4-76.8,76.8-76.8s76.8,34.4,76.8,76.8s-34.4,76.8-76.8,76.8C213.6,452.2,179.2,417.9,179.2,375.5z
				 M338.8,449.7c-3.3,3.3-8.7,3.3-12,0l-6.3-6.3c4.1-3.9,7.9-8.2,11.2-12.8l7.1,7.1c1.6,1.6,2.5,3.7,2.5,6S340.4,448.1,338.8,449.7
				L338.8,449.7z"/>
			<path id="Shape_22_" d="M398.6,104.9c-3.3-3.3-8.7-3.3-12.1,0l-25.6,25.6c-3.2,3.3-3.2,8.7,0.1,12c3.3,3.3,8.6,3.3,12,0.1l11-11
				v56.2c0,4.7,3.8,8.5,8.5,8.5s8.5-3.8,8.5-8.5v-56.2l11,11c3.3,3.2,8.7,3.2,12-0.1c3.3-3.3,3.3-8.6,0.1-12L398.6,104.9z"/>
			<path id="Shape_23_" d="M125.5,104.9c-3.3-3.3-8.7-3.3-12.1,0l-25.6,25.6c-3.2,3.3-3.2,8.7,0.1,12s8.6,3.3,12,0.1l11-11v56.2
				c0,4.7,3.8,8.5,8.5,8.5c4.7,0,8.5-3.8,8.5-8.5v-56.2l11,11c3.3,3.2,8.7,3.2,12-0.1c3.3-3.3,3.3-8.6,0.1-12L125.5,104.9z"/>
		</g>
	</g>
</g>
</svg>
