<svg id="Layer_1" data-name="Layer 1" xmlns="http://www.w3.org/2000/svg" viewBox="0 0 242.18 41.13"><defs><style>.cls-1{fill:none;stroke:#000;stroke-miterlimit:10;stroke-width:3px;}</style></defs><path d="M161.45,14.65h7V5.47H172v9.18h8.64v3.24H172V32.38c0,.9.4,1.35,1.21,1.35h6.35V37h-7.61a3.35,3.35,0,0,1-2.5-1,3.47,3.47,0,0,1-1-2.52V17.89h-7Z" transform="translate(-29.13 -4.84)"/><path d="M190.29,33.73h7.83V17.89h-7V14.65h10.53V33.73h7.29V37H190.29ZM196.68,8A3.15,3.15,0,1,1,203,8a3.15,3.15,0,0,1-6.3,0Z" transform="translate(-29.13 -4.84)"/><path d="M238.76,37h-3.51V21a4.36,4.36,0,0,0-.72-2.59,2.62,2.62,0,0,0-2.3-1,3,3,0,0,0-2.41,1.1,5.25,5.25,0,0,0-.92,3.4V37h-3.51V20.77a3.72,3.72,0,0,0-.81-2.46,2.68,2.68,0,0,0-2.16-1,3,3,0,0,0-2.5,1.17,5,5,0,0,0-.87,3.06V37h-3.51V14.65h3.51v2.43h.54a4.55,4.55,0,0,1,1.71-2.32A4.65,4.65,0,0,1,224,14a4.14,4.14,0,0,1,2.68.85,4.43,4.43,0,0,1,1.46,2.21h.54A5.09,5.09,0,0,1,233.49,14a4.85,4.85,0,0,1,3.89,1.59,6.17,6.17,0,0,1,1.38,4.17Z" transform="translate(-29.13 -4.84)"/><path class="cls-1" d="M245.33,25.49a12.51,12.51,0,0,0,24,4.87c-3.55-1.59-9-3-12.53-4.87,2.69-1.34,8.2-3.24,12.26-5.45a12.51,12.51,0,0,0-23.77,5.45Z" transform="translate(-29.13 -4.84)"/><path d="M64.75,46H61.24V14.65h3.51v3.51h.54a7.78,7.78,0,0,1,3.24-3.09A9.8,9.8,0,0,1,73,14a10.14,10.14,0,0,1,3.92.76A9.76,9.76,0,0,1,80.21,17a10.42,10.42,0,0,1,2.25,3.55,13,13,0,0,1,.83,4.82v.9a13.53,13.53,0,0,1-.81,4.86,10.21,10.21,0,0,1-2.22,3.55A9.41,9.41,0,0,1,77,36.85a10.78,10.78,0,0,1-4,.75,10.53,10.53,0,0,1-2.2-.25,9.17,9.17,0,0,1-4-2,6.58,6.58,0,0,1-1.44-1.77h-.54Zm7.47-11.7a7.56,7.56,0,0,0,3-.57,7.06,7.06,0,0,0,2.37-1.59,7.18,7.18,0,0,0,1.57-2.52,9.23,9.23,0,0,0,.56-3.33v-.9a9,9,0,0,0-.56-3.27,7.57,7.57,0,0,0-1.57-2.52,7.23,7.23,0,0,0-2.39-1.64,7.43,7.43,0,0,0-3-.58,7.1,7.1,0,0,0-2.92.6,7.35,7.35,0,0,0-2.36,1.69,7.81,7.81,0,0,0-1.6,2.59,9.06,9.06,0,0,0-.59,3.31v.54a9.2,9.2,0,0,0,.59,3.35A7.91,7.91,0,0,0,66.94,32a7,7,0,0,0,2.36,1.66A7.26,7.26,0,0,0,72.22,34.27Z" transform="translate(-29.13 -4.84)"/><path d="M90.13,33.73H98V17.89h-7V14.65h10.53V33.73h7.29V37H90.13ZM96.52,8a3,3,0,0,1,.93-2.23,3.15,3.15,0,0,1,4.45,0A3,3,0,0,1,102.82,8a3,3,0,0,1-.92,2.22,3.13,3.13,0,0,1-4.45,0A3,3,0,0,1,96.52,8Z" transform="translate(-29.13 -4.84)"/><path d="M138,29.05a11.63,11.63,0,0,1-1.23,3.42A9.7,9.7,0,0,1,131.4,37a12.09,12.09,0,0,1-4,.63,12.82,12.82,0,0,1-4.43-.77,10.74,10.74,0,0,1-3.67-2.23A10.42,10.42,0,0,1,116.8,31a12,12,0,0,1-.93-4.86v-.54a12.17,12.17,0,0,1,.93-4.86,10.66,10.66,0,0,1,2.49-3.65A11.21,11.21,0,0,1,123,14.83a12.18,12.18,0,0,1,4.43-.81,11.8,11.8,0,0,1,3.92.63,10.22,10.22,0,0,1,3.17,1.77,9.72,9.72,0,0,1,2.25,2.73,10.53,10.53,0,0,1,1.19,3.42l-3.51.81a7.5,7.5,0,0,0-.65-2.28,6.31,6.31,0,0,0-3.53-3.26,8,8,0,0,0-2.93-.49,7.66,7.66,0,0,0-3,.6,7.84,7.84,0,0,0-2.5,1.71,8,8,0,0,0-1.69,2.64,9,9,0,0,0-.61,3.33v.54a9.06,9.06,0,0,0,.61,3.39,7.25,7.25,0,0,0,1.69,2.55,7.5,7.5,0,0,0,2.52,1.59,8.33,8.33,0,0,0,3.1.57,7.64,7.64,0,0,0,2.91-.52,7.07,7.07,0,0,0,2.11-1.35,6.73,6.73,0,0,0,1.4-1.91,8.14,8.14,0,0,0,.69-2.25Z" transform="translate(-29.13 -4.84)"/><path class="cls-1" d="M30.63,25.49a12.51,12.51,0,0,0,24,4.87c-3.54-1.59-9-3-12.53-4.87,2.7-1.34,8.21-3.24,12.27-5.45a12.52,12.52,0,0,0-23.78,5.45Z" transform="translate(-29.13 -4.84)"/></svg>