<?xml version="1.0" encoding="utf-8"?>
<!-- Generator: Adobe Illustrator 25.1.0, SVG Export Plug-In . SVG Version: 6.00 Build 0)  -->
<svg version="1.1" id="Layer_1" xmlns="http://www.w3.org/2000/svg" xmlns:xlink="http://www.w3.org/1999/xlink" x="0px" y="0px"
	 viewBox="0 0 255.8 41.1" style="enable-background:new 0 0 255.8 41.1;" xml:space="preserve">
<style type="text/css">
	.st0{fill:#262323;}
	.st1{fill:none;stroke:#262323;stroke-width:3;stroke-miterlimit:10;}
</style>
<path class="st0" d="M139.4,9.8h7V0.6h3.6v9.2h8.6V13H150v14.5c0,0.9,0.4,1.3,1.2,1.3h6.4v3.3H150c-0.9,0-1.8-0.3-2.5-1
	s-1-1.6-1-2.5V13h-7L139.4,9.8z"/>
<path class="st0" d="M168.3,28.9h7.8V13h-7V9.8h10.5v19.1h7.3v3.3h-18.6V28.9z M174.6,3.2c0-1.7,1.4-3.2,3.2-3.2s3.2,1.4,3.2,3.2
	c0,1.7-1.4,3.2-3.1,3.2C176.1,6.3,174.7,4.9,174.6,3.2L174.6,3.2z"/>
<path class="st0" d="M218.7,32.2h-3.5v-16c0-0.9-0.2-1.8-0.7-2.6c-0.5-0.7-1.4-1.1-2.3-1c-0.9,0-1.8,0.4-2.4,1.1
	c-0.7,1-1,2.2-0.9,3.4v15.1h-3.5V15.9c0-0.9-0.3-1.8-0.8-2.5s-1.3-1-2.2-1c-1,0-1.9,0.4-2.5,1.2c-0.6,0.9-0.9,2-0.9,3.1v15.5h-3.5
	V9.8h3.5v2.4h0.5c0.3-0.9,0.9-1.8,1.7-2.3s1.7-0.8,2.7-0.8s1.9,0.3,2.7,0.9c0.7,0.6,1.2,1.3,1.5,2.2h0.5c0.8-1.9,2.7-3.1,4.8-3.1
	c1.5-0.1,2.9,0.5,3.9,1.6c1,1.2,1.4,2.7,1.4,4.2V32.2z"/>
<path class="st1" d="M227.3,20.6c0,6.9,5.7,12.5,12.6,12.4c5,0,9.4-3,11.4-7.6c-3.5-1.6-9-3-12.5-4.9c2.7-1.3,8.2-3.2,12.3-5.5
	c-3-6.2-10.5-8.8-16.7-5.8C230,11.5,227.3,15.9,227.3,20.6L227.3,20.6z"/>
<path class="st0" d="M40.7,41.2h-3.5V9.8h3.5v3.5h0.5c0.8-1.3,1.9-2.4,3.2-3.1c1.4-0.7,2.9-1.1,4.5-1.1c1.3,0,2.7,0.2,3.9,0.8
	c1.2,0.5,2.4,1.3,3.3,2.2c1,1,1.7,2.2,2.2,3.5c0.6,1.5,0.9,3.2,0.8,4.8v0.9c0,1.7-0.2,3.3-0.8,4.9c-0.5,1.3-1.2,2.5-2.2,3.6
	c-0.9,0.9-2,1.7-3.3,2.2c-1.3,0.5-2.6,0.8-4,0.8c-0.7,0-1.5-0.1-2.2-0.2c-1.5-0.3-2.9-1-4-2c-0.6-0.5-1.1-1.1-1.4-1.8h-0.5V41.2z
	 M48.2,29.5c1,0,2-0.2,3-0.6c0.9-0.4,1.7-0.9,2.4-1.6s1.2-1.6,1.6-2.5c0.4-1.1,0.6-2.2,0.6-3.3v-0.9c0-1.1-0.2-2.2-0.6-3.3
	c-0.4-0.9-0.9-1.8-1.6-2.5c-0.7-0.7-1.5-1.3-2.4-1.6c-0.9-0.4-2-0.6-3-0.6s-2,0.2-2.9,0.6c-0.9,0.4-1.7,1-2.4,1.7
	c-0.7,0.8-1.2,1.6-1.6,2.6c-0.4,1.1-0.6,2.2-0.6,3.3v0.5c0,1.1,0.2,2.3,0.6,3.4c0.4,0.9,0.9,1.8,1.6,2.5c0.7,0.7,1.5,1.3,2.4,1.7
	C46.2,29.2,47.2,29.4,48.2,29.5L48.2,29.5z"/>
<path class="st0" d="M68.1,28.9H76V13h-7V9.8h10.5v19.1h7.3v3.3H68.1V28.9z M74.5,3.2c0-0.8,0.3-1.6,0.9-2.2c1.2-1.2,3.2-1.2,4.4,0
	c0.6,0.6,0.9,1.4,0.9,2.2s-0.3,1.6-0.9,2.2c-1.2,1.2-3.2,1.2-4.4,0l0,0C74.8,4.8,74.5,4,74.5,3.2z"/>
<path class="st0" d="M116,24.2c-0.2,1.2-0.6,2.4-1.2,3.4c-1.2,2.1-3.1,3.7-5.4,4.5c-1.3,0.4-2.6,0.6-4,0.6c-1.5,0-3-0.3-4.4-0.8
	s-2.6-1.2-3.7-2.2s-1.9-2.3-2.5-3.6c-0.6-1.5-1-3.2-0.9-4.9v-0.5c0-1.7,0.3-3.3,0.9-4.9c0.6-1.4,1.4-2.6,2.5-3.6s2.3-1.8,3.7-2.3
	c1.4-0.5,2.9-0.8,4.4-0.8c1.3,0,2.7,0.2,3.9,0.6c1.2,0.4,2.2,1,3.2,1.8c0.9,0.8,1.7,1.7,2.2,2.7c0.6,1.1,1,2.2,1.2,3.4l-3.5,0.8
	c-0.1-0.8-0.3-1.6-0.6-2.3c-0.7-1.5-2-2.7-3.5-3.3c-0.9-0.3-1.9-0.5-2.9-0.5s-2.1,0.2-3,0.6c-0.9,0.4-1.8,1-2.5,1.7
	c-0.7,0.8-1.3,1.7-1.7,2.6c-0.4,1.1-0.6,2.2-0.6,3.3V21c0,1.2,0.2,2.3,0.6,3.4c0.4,1,1,1.8,1.7,2.6c0.7,0.7,1.6,1.2,2.5,1.6
	c1,0.4,2,0.6,3.1,0.6c1,0,2-0.2,2.9-0.5c0.8-0.3,1.5-0.8,2.1-1.3s1-1.2,1.4-1.9c0.3-0.7,0.6-1.5,0.7-2.2L116,24.2z"/>
<path class="st1" d="M3.6,20.6c0,6.9,5.7,12.5,12.6,12.4c5,0,9.4-3,11.4-7.6c-3.5-1.6-9-3-12.5-4.9c2.7-1.3,8.2-3.2,12.3-5.5
	c-3.1-6-10.6-8.6-16.8-5.6C6.3,11.5,3.6,15.9,3.6,20.6L3.6,20.6z"/>
</svg>
