<?xml version="1.0" encoding="utf-8"?>
<!-- Generator: Adobe Illustrator 25.1.0, SVG Export Plug-In . SVG Version: 6.00 Build 0)  -->
<svg version="1.1" id="Layer_1" xmlns="http://www.w3.org/2000/svg" xmlns:xlink="http://www.w3.org/1999/xlink" x="0px" y="0px"
	 viewBox="0 0 300 50" style="enable-background:new 0 0 300 50;" xml:space="preserve">
<style type="text/css">
	.st0{fill:#00AF91;}
	.st1{fill:none;stroke:#00AF91;stroke-width:3;stroke-miterlimit:10;}
</style>
<path class="st0" d="M161.45,14.65h7.02V5.47h3.51v9.18h8.64v3.24h-8.64v14.49c0,0.9,0.4,1.35,1.21,1.35h6.35v3.24h-7.61
	c-1.02,0-1.85-0.33-2.5-0.99c-0.65-0.66-0.97-1.5-0.97-2.52V17.89h-7.02V14.65z"/>
<path class="st0" d="M190.29,33.73h7.83V17.89h-7.02v-3.24h10.53v19.08h7.29v3.24h-18.63V33.73z M196.68,7.99
	c0-0.87,0.31-1.61,0.92-2.23c0.61-0.61,1.36-0.92,2.23-0.92c0.87,0,1.61,0.31,2.23,0.92c0.61,0.62,0.92,1.36,0.92,2.23
	c0,0.87-0.31,1.61-0.92,2.23c-0.62,0.62-1.36,0.92-2.23,0.92c-0.87,0-1.61-0.31-2.23-0.92C196.99,9.6,196.68,8.86,196.68,7.99z"/>
<path class="st0" d="M238.76,36.97h-3.51V20.95c0-1.05-0.24-1.91-0.72-2.59c-0.48-0.67-1.25-1.01-2.29-1.01
	c-0.99,0-1.79,0.37-2.41,1.1c-0.62,0.74-0.92,1.87-0.92,3.4v15.12h-3.51v-16.2c0-0.99-0.27-1.81-0.81-2.45
	c-0.54-0.65-1.26-0.97-2.16-0.97c-1.08,0-1.91,0.39-2.5,1.17c-0.58,0.78-0.88,1.8-0.88,3.06v15.39h-3.51V14.65h3.51v2.43h0.54
	c0.39-1.05,0.96-1.82,1.71-2.32c0.75-0.49,1.63-0.74,2.66-0.74c1.08,0,1.97,0.29,2.68,0.85c0.7,0.57,1.19,1.3,1.46,2.21h0.54
	c1.02-2.04,2.64-3.06,4.86-3.06c1.68,0,2.98,0.53,3.89,1.6c0.92,1.07,1.37,2.45,1.37,4.16V36.97z"/>
<path class="st1" d="M245.33,25.49c0,6.91,5.6,12.51,12.51,12.51c5.18,0,9.63-3.15,11.53-7.64c-3.54-1.59-8.95-3.04-12.53-4.87
	c2.69-1.34,8.2-3.24,12.26-5.45c-2.03-4.18-6.31-7.06-11.26-7.06C250.93,12.98,245.33,18.58,245.33,25.49z"/>
<g>
	<path class="st0" d="M64.75,45.97h-3.51V14.65h3.51v3.51h0.54c0.78-1.35,1.86-2.38,3.24-3.08c1.38-0.7,2.88-1.06,4.5-1.06
		c1.38,0,2.68,0.25,3.92,0.76c1.23,0.51,2.32,1.25,3.26,2.21c0.95,0.96,1.69,2.15,2.25,3.56c0.56,1.41,0.83,3.02,0.83,4.81v0.9
		c0,1.83-0.27,3.45-0.81,4.86c-0.54,1.41-1.28,2.6-2.23,3.56c-0.95,0.96-2.05,1.69-3.31,2.18c-1.26,0.49-2.6,0.74-4,0.74
		c-0.72,0-1.46-0.08-2.21-0.25c-0.75-0.17-1.46-0.42-2.14-0.76c-0.67-0.34-1.3-0.77-1.87-1.26c-0.57-0.49-1.05-1.09-1.44-1.78h-0.54
		V45.97z M72.22,34.27c1.08,0,2.07-0.19,2.97-0.56c0.9-0.38,1.69-0.91,2.36-1.6c0.67-0.69,1.2-1.53,1.58-2.52
		c0.37-0.99,0.56-2.1,0.56-3.33v-0.9c0-1.2-0.19-2.29-0.56-3.26c-0.38-0.97-0.9-1.81-1.58-2.52c-0.67-0.7-1.47-1.25-2.38-1.64
		c-0.92-0.39-1.9-0.59-2.95-0.59c-1.05,0-2.02,0.2-2.92,0.61c-0.9,0.4-1.69,0.97-2.36,1.69c-0.67,0.72-1.21,1.58-1.6,2.59
		c-0.39,1.01-0.58,2.11-0.58,3.31v0.54c0,1.23,0.19,2.35,0.58,3.35c0.39,1.01,0.92,1.87,1.6,2.59c0.68,0.72,1.46,1.28,2.36,1.67
		C70.2,34.07,71.17,34.27,72.22,34.27z"/>
	<path class="st0" d="M90.13,33.73h7.83V17.89h-7.02v-3.24h10.53v19.08h7.29v3.24H90.13V33.73z M96.52,7.99
		c0-0.87,0.31-1.61,0.92-2.23c0.61-0.61,1.36-0.92,2.23-0.92c0.87,0,1.61,0.31,2.23,0.92c0.61,0.62,0.92,1.36,0.92,2.23
		c0,0.87-0.31,1.61-0.92,2.23c-0.62,0.62-1.36,0.92-2.23,0.92c-0.87,0-1.61-0.31-2.23-0.92C96.83,9.6,96.52,8.86,96.52,7.99z"/>
	<path class="st0" d="M138.01,29.05c-0.24,1.23-0.65,2.37-1.24,3.42c-0.58,1.05-1.33,1.96-2.23,2.72s-1.95,1.36-3.15,1.78
		c-1.2,0.42-2.54,0.63-4.01,0.63c-1.56,0-3.04-0.25-4.43-0.76s-2.62-1.25-3.67-2.23c-1.05-0.97-1.88-2.17-2.5-3.58
		c-0.62-1.41-0.92-3.03-0.92-4.86v-0.54c0-1.8,0.31-3.42,0.92-4.86c0.61-1.44,1.45-2.66,2.5-3.65c1.05-0.99,2.27-1.76,3.67-2.29
		c1.4-0.54,2.87-0.81,4.43-0.81c1.41,0,2.71,0.21,3.92,0.63c1.2,0.42,2.26,1.01,3.17,1.78c0.91,0.77,1.67,1.67,2.25,2.72
		c0.58,1.05,0.98,2.19,1.19,3.42l-3.51,0.81c-0.09-0.78-0.31-1.54-0.65-2.27c-0.35-0.73-0.81-1.38-1.4-1.94
		c-0.58-0.55-1.3-1-2.14-1.33c-0.84-0.33-1.82-0.5-2.92-0.5c-1.08,0-2.09,0.2-3.04,0.61c-0.94,0.4-1.78,0.98-2.5,1.71
		c-0.72,0.74-1.28,1.61-1.69,2.63c-0.4,1.02-0.61,2.13-0.61,3.33v0.54c0,1.26,0.2,2.39,0.61,3.4c0.41,1.01,0.97,1.85,1.69,2.54
		c0.72,0.69,1.56,1.22,2.52,1.6c0.96,0.38,2,0.56,3.1,0.56s2.08-0.17,2.9-0.52c0.82-0.34,1.53-0.79,2.11-1.35
		c0.58-0.55,1.05-1.19,1.4-1.91c0.34-0.72,0.58-1.47,0.7-2.25L138.01,29.05z"/>
</g>
<path class="st1" d="M30.63,25.49c0,6.91,5.6,12.51,12.51,12.51c5.18,0,9.63-3.15,11.53-7.64c-3.54-1.59-8.95-3.04-12.53-4.87
	c2.69-1.34,8.2-3.24,12.26-5.45c-2.03-4.18-6.31-7.06-11.26-7.06C36.24,12.98,30.63,18.58,30.63,25.49z"/>
</svg>
